<svg width="82" height="60" viewBox="0 0 82 60" fill="none" xmlns="http://www.w3.org/2000/svg">
        <g filter="url(#filter0_d_3_6)">
            <path d="M22.4375 39H26.125C26.125 39.9208 26.479 40.6922 27.187 41.314C27.8925 41.938 28.7677 42.25 29.8125 42.25C30.8573 42.25 31.7337 41.938 32.4417 41.314C33.1472 40.6922 33.5 39.9208 33.5 39H37.1875C38.2323 39 39.1087 38.688 39.8167 38.064C40.5222 37.4422 40.875 36.6708 40.875 35.75V26C40.875 25.0792 40.5222 24.3067 39.8167 23.6827C39.1087 23.0609 38.2323 22.75 37.1875 22.75H26.125V19.5H37.2797C38.3245 19.5 39.1849 19.188 39.8609 18.564C40.537 17.9422 40.875 17.1708 40.875 16.25C40.875 15.3292 40.5222 14.5567 39.8167 13.9327C39.1087 13.3109 38.2323 13 37.1875 13H33.5C33.5 12.0792 33.1472 11.3068 32.4417 10.6828C31.7337 10.0609 30.8573 9.75 29.8125 9.75C28.7677 9.75 27.8925 10.0609 27.187 10.6828C26.479 11.3068 26.125 12.0792 26.125 13H22.4375C21.3927 13 20.5163 13.3109 19.8083 13.9327C19.1028 14.5567 18.75 15.3292 18.75 16.25V26C18.75 26.9208 19.1028 27.6922 19.8083 28.314C20.5163 28.938 21.3927 29.25 22.4375 29.25H33.5V32.5H22.3453C21.3005 32.5 20.4401 32.8109 19.7641 33.4328C19.088 34.0568 18.75 34.8292 18.75 35.75C18.75 36.6708 19.1028 37.4422 19.8083 38.064C20.5163 38.688 21.3927 39 22.4375 39ZM54.3344 38.675C54.7031 39 55.1333 39.1625 55.625 39.1625C56.1167 39.1625 56.5469 39 56.9156 38.675L63 33.3125H48.25L54.3344 38.675ZM48.25 19.5H63L56.9156 14.1375C56.5469 13.8125 56.1167 13.65 55.625 13.65C55.1333 13.65 54.7031 13.8125 54.3344 14.1375L48.25 19.5ZM11.375 52C9.34688 52 7.61129 51.3641 6.16825 50.0923C4.72275 48.8183 4 47.2875 4 45.5V6.5C4 4.7125 4.72275 3.18283 6.16825 1.911C7.61129 0.636999 9.34688 0 11.375 0H70.375C72.4031 0 74.1399 0.636999 75.5854 1.911C77.0285 3.18283 77.75 4.7125 77.75 6.5V45.5C77.75 47.2875 77.0285 48.8183 75.5854 50.0923C74.1399 51.3641 72.4031 52 70.375 52H11.375ZM11.375 45.5H70.375V6.5H11.375V45.5Z" fill="#17A2B8"/>
            <path d="M26.625 39V38.5H26.125H22.4375C21.5004 38.5 20.7456 38.2236 20.1389 37.6889C19.5384 37.1597 19.25 36.5238 19.25 35.75C19.25 34.9688 19.5297 34.3297 20.1027 33.8006C20.6737 33.2755 21.4075 33 22.3453 33H33.5H34V32.5V29.25V28.75H33.5H22.4375C21.5004 28.75 20.7456 28.4736 20.1389 27.9389C19.5384 27.4097 19.25 26.7738 19.25 26V16.25C19.25 15.4764 19.5384 14.8392 20.139 14.3077C20.7455 13.7754 21.5003 13.5 22.4375 13.5H26.125H26.625V13C26.625 12.2268 26.9142 11.5896 27.5176 11.0579C28.1215 10.5256 28.8749 10.25 29.8125 10.25C30.7497 10.25 31.5045 10.5254 32.111 11.0578C32.7116 11.5892 33 12.2264 33 13V13.5H33.5H37.1875C38.1248 13.5 38.8797 13.7755 39.4862 14.308C40.0867 14.8394 40.375 15.4765 40.375 16.25C40.375 17.0314 40.0953 17.6691 39.5224 18.196L39.5218 18.1966C38.9508 18.7237 38.2171 19 37.2797 19H26.125H25.625V19.5V22.75V23.25H26.125H37.1875C38.1248 23.25 38.8797 23.5255 39.4862 24.058C40.0867 24.5894 40.375 25.2265 40.375 26V35.75C40.375 36.5238 40.0866 37.1597 39.4861 37.6889C38.8794 38.2236 38.1246 38.5 37.1875 38.5H33.5H33V39C33 39.7738 32.7116 40.4097 32.1111 40.9389C31.5044 41.4736 30.7496 41.75 29.8125 41.75C28.8754 41.75 28.1222 41.4736 27.5182 40.9395L27.517 40.9383C26.9142 40.4089 26.625 39.7732 26.625 39ZM6.49853 2.28638L6.49917 2.28582C7.84564 1.09708 9.46162 0.5 11.375 0.5H70.375C72.2884 0.5 73.9058 1.09709 75.2548 2.2861C76.5994 3.47117 77.25 4.86794 77.25 6.5V45.5C77.25 47.1318 76.5996 48.5297 75.2552 49.7169C73.9061 50.9038 72.2886 51.5 70.375 51.5H11.375C9.46138 51.5 7.84529 50.9038 6.49885 49.7171C5.15158 48.5297 4.5 47.1318 4.5 45.5V6.5C4.5 4.86826 5.15153 3.47155 6.49853 2.28638ZM10.875 45.5V46H11.375H70.375H70.875V45.5V6.5V6H70.375H11.375H10.875V6.5V45.5ZM55.625 38.6625C55.255 38.6625 54.9424 38.5444 54.665 38.2999L49.5735 33.8125H61.6765L56.585 38.2999C56.3076 38.5444 55.995 38.6625 55.625 38.6625ZM61.6765 19H49.5735L54.665 14.5126C54.9424 14.2681 55.255 14.15 55.625 14.15C55.995 14.15 56.3076 14.2681 56.585 14.5126L61.6765 19Z" stroke="black"/>
        </g>
        <defs>
            <filter id="filter0_d_3_6" x="0" y="0" width="81.75" height="60" filterUnits="userSpaceOnUse" color-interpolation-filters="sRGB">
                <feFlood flood-opacity="0" result="BackgroundImageFix"/>
                <feColorMatrix in="SourceAlpha" type="matrix" values="0 0 0 0 0 0 0 0 0 0 0 0 0 0 0 0 0 0 127 0" result="hardAlpha"/>
                <feOffset dy="4"/>
                <feGaussianBlur stdDeviation="2"/>
                <feComposite in2="hardAlpha" operator="out"/>
                <feColorMatrix type="matrix" values="0 0 0 0 0 0 0 0 0 0 0 0 0 0 0 0 0 0 0.25 0"/>
                <feBlend mode="normal" in2="BackgroundImageFix" result="effect1_dropShadow_3_6"/>
                <feBlend mode="normal" in="SourceGraphic" in2="effect1_dropShadow_3_6" result="shape"/>
            </filter>
        </defs>
    </svg>